<?xml version="1.0" encoding="UTF-8"?>
<svg width="239px" height="49px" viewBox="0 0 239 49" version="1.1" xmlns="http://www.w3.org/2000/svg" xmlns:xlink="http://www.w3.org/1999/xlink">
    <title>Group 26</title>
    <g id="Page-1" stroke="none" stroke-width="1" fill="none" fill-rule="evenodd">
        <g id="Group-26" fill-rule="nonzero">
            <g id="creadive-copy-4" transform="translate(49.446716, 4.790000)" fill="#FFFFFF">
                <path d="M12.285,33.75 C16.875,33.75 20.745,31.5 22.815,28.035 L18.45,25.38 C17.235,27.495 14.985,28.89 12.285,28.89 C8.235,28.89 5.175,25.785 5.175,21.735 C5.175,17.685 8.235,14.58 12.285,14.58 C14.985,14.58 17.235,15.975 18.45,18.09 L22.815,15.435 C20.745,11.97 16.875,9.72 12.285,9.72 C5.265,9.72 0,14.895 0,21.735 C0,28.575 5.265,33.75 12.285,33.75 Z" id="Path"></path>
                <path d="M39.433321,9.9 C36.418321,9.9 33.988321,11.295 32.278321,13.635 L32.278321,10.26 L27.238321,10.26 L27.238321,33.21 L32.278321,33.21 L32.278321,22.05 C32.278321,17.82 34.933321,15.075 39.433321,15.075 L40.288321,15.075 L40.288321,9.9 L39.433321,9.9 Z" id="Path"></path>
                <path d="M66.401642,21.78 C66.401642,14.85 61.226642,9.72 54.341642,9.72 C47.456642,9.72 42.236642,14.85 42.236642,21.645 C42.236642,28.53 47.636642,33.75 54.926642,33.75 C59.246642,33.75 63.026642,31.905 65.366642,28.98 L61.946642,26.055 C60.641642,27.765 58.076642,29.205 55.061642,29.205 C51.326642,29.205 48.491642,27.045 47.681642,23.76 L66.266642,23.76 C66.356642,23.13 66.401642,22.41 66.401642,21.78 Z M54.296642,14.265 C57.581642,14.265 60.236642,16.38 61.001642,19.62 L47.636642,19.62 C48.446642,16.425 51.011642,14.265 54.296642,14.265 Z" id="Shape"></path>
                <path d="M89.229963,10.26 L89.229963,13.545 C87.339963,11.16 84.549963,9.72 81.174963,9.72 C74.694963,9.72 69.879963,14.895 69.879963,21.735 C69.879963,28.575 74.694963,33.75 81.174963,33.75 C84.549963,33.75 87.339963,32.31 89.229963,29.925 L89.229963,33.21 L94.269963,33.21 L94.269963,10.26 L89.229963,10.26 Z M82.164963,28.89 C78.069963,28.89 75.054963,25.785 75.054963,21.735 C75.054963,17.685 78.069963,14.58 82.164963,14.58 C86.214963,14.58 89.229963,17.685 89.229963,21.735 C89.229963,25.785 86.214963,28.89 82.164963,28.89 Z" id="Shape"></path>
                <path d="M118.673284,0.81 L118.673284,13.545 C116.783284,11.16 113.993284,9.72 110.618284,9.72 C104.138284,9.72 99.323284,14.895 99.323284,21.735 C99.323284,28.575 104.138284,33.75 110.618284,33.75 C113.993284,33.75 116.783284,32.31 118.673284,29.925 L118.673284,33.21 L123.713284,33.21 L123.713284,0.81 L118.673284,0.81 Z M111.608284,28.89 C107.513284,28.89 104.498284,25.785 104.498284,21.735 C104.498284,17.685 107.513284,14.58 111.608284,14.58 C115.658284,14.58 118.673284,17.685 118.673284,21.735 C118.673284,25.785 115.658284,28.89 111.608284,28.89 Z" id="Shape"></path>
                <path d="M132.591605,6.39 C134.436605,6.39 135.831605,4.995 135.831605,3.195 C135.831605,1.35 134.436605,0 132.591605,0 C130.791605,0 129.396605,1.35 129.396605,3.195 C129.396605,4.995 130.791605,6.39 132.591605,6.39 Z M130.071605,33.21 L135.111605,33.21 L135.111605,10.26 L130.071605,10.26 L130.071605,33.21 Z" id="Shape"></path>
                <polygon id="Path" points="158.029926 10.26 151.324926 27 144.664926 10.26 138.904926 10.26 148.669926 33.21 153.889926 33.21 163.654926 10.26"></polygon>
                <path d="M188.868247,21.78 C188.868247,14.85 183.693247,9.72 176.808247,9.72 C169.923247,9.72 164.703247,14.85 164.703247,21.645 C164.703247,28.53 170.103247,33.75 177.393247,33.75 C181.713247,33.75 185.493247,31.905 187.833247,28.98 L184.413247,26.055 C183.108247,27.765 180.543247,29.205 177.528247,29.205 C173.793247,29.205 170.958247,27.045 170.148247,23.76 L188.733247,23.76 C188.823247,23.13 188.868247,22.41 188.868247,21.78 Z M176.763247,14.265 C180.048247,14.265 182.703247,16.38 183.468247,19.62 L170.103247,19.62 C170.913247,16.425 173.478247,14.265 176.763247,14.265 Z" id="Shape"></path>
            </g>
            <g id="Group-Copy" transform="translate(21.500000, 24.500000) scale(-1, 1) translate(-21.500000, -24.500000) ">
                <path d="M1.09790837,22.0540119 L16.0973505,37.4782504 C17.0388447,38.4806585 18.4330557,38.8826759 19.7441173,38.5297869 C21.0551789,38.1768979 22.0790594,37.1240203 22.4222296,35.7758284 C22.7653997,34.4276364 22.3744542,32.9939403 21.3996533,32.0257821 L9.05136255,19.3277778 L21.3996533,6.62977342 C22.3744542,5.66161529 22.7653997,4.22791913 22.4222296,2.87972719 C22.0790594,1.53153526 21.0551789,0.478657607 19.7441173,0.125768611 C18.4330557,-0.227120385 17.0388447,0.174897017 16.0973505,1.17730511 L1.09790837,16.6015436 C-0.365969455,18.1073343 -0.365969455,20.5482212 1.09790837,22.0540119 Z" id="Path-Copy" fill="#15B6B0"></path>
                <path d="M26.9026495,11.5217496 C25.9611553,10.5193415 24.5669443,10.1173241 23.2558827,10.4702131 C21.9448211,10.8231021 20.9209406,11.8759797 20.5777704,13.2241716 C20.2346003,14.5723636 20.6255458,16.0060597 21.6003467,16.9742179 L33.9486375,29.6722222 L21.6003467,42.3702266 C20.6255458,43.3383847 20.2346003,44.7720809 20.5777704,46.1202728 C20.9209406,47.4684647 21.9448211,48.5213424 23.2558827,48.8742314 C24.5669443,49.2271204 25.9611553,48.825103 26.9026495,47.8226949 L41.9020916,32.3984564 C43.3659695,30.8926657 43.3659695,28.4517788 41.9020916,26.9459881 L26.9026495,11.5217496 Z" id="Path-Copy-2" fill="#20C943"></path>
            </g>
        </g>
    </g>
</svg>