<?xml version="1.0" encoding="UTF-8"?>
<svg id="BACKGROUND" xmlns="http://www.w3.org/2000/svg" version="1.1" xmlns:xlink="http://www.w3.org/1999/xlink" viewBox="0 0 500 142.07">
  <!-- Generator: Adobe Illustrator 29.1.0, SVG Export Plug-In . SVG Version: 2.1.0 Build 142)  -->
  <defs>
    <style>
      .st0 {
        fill: url(#linear-gradient2);
      }

      .st1 {
        fill: #fff;
      }

      .st2 {
        fill: url(#linear-gradient1);
      }

      .st3 {
        fill: url(#linear-gradient4);
      }

      .st4 {
        fill: url(#linear-gradient3);
      }

      .st5 {
        fill: url(#linear-gradient);
      }
    </style>
    <linearGradient id="linear-gradient" x1="77.76" y1="51.64" x2="103.81" y2="8.95" gradientUnits="userSpaceOnUse">
      <stop offset="0" stop-color="#123ec5"/>
      <stop offset="1" stop-color="#2aff91"/>
    </linearGradient>
    <linearGradient id="linear-gradient1" x1="89.18" y1="58.61" x2="115.23" y2="15.92" xlink:href="#linear-gradient"/>
    <linearGradient id="linear-gradient2" x1="46.67" y1="66.02" x2="98.41" y2="128.29" xlink:href="#linear-gradient"/>
    <linearGradient id="linear-gradient3" x1="53.08" y1="57.69" x2="108.31" y2="57.69" xlink:href="#linear-gradient"/>
    <linearGradient id="linear-gradient4" x1="101.74" y1="66.28" x2="127.79" y2="23.59" xlink:href="#linear-gradient"/>
  </defs>
  <g>
    <path class="st1" d="M144.27,76.24c0-11.44,8.58-19.52,20.67-19.52,7.44,0,13.37,3.08,16.3,8.87l-6.86,4c-2.29-3.65-5.72-5.29-9.51-5.29-6.58,0-11.58,4.58-11.58,11.94s5.01,11.94,11.58,11.94c3.79,0,7.22-1.65,9.51-5.29l6.86,4c-2.93,5.72-8.87,8.94-16.3,8.94-12.08,0-20.67-8.15-20.67-19.59Z"/>
    <path class="st1" d="M211.06,56.72v8.51c-.79-.14-1.43-.21-2.07-.21-6.79,0-11.08,4-11.08,11.8v18.52h-8.94v-38.18h8.51v5.58c2.57-4,7.22-6.01,13.59-6.01Z"/>
    <path class="st1" d="M246.82,84.1l4.72,5.51c-3.36,4.08-8.72,6.22-15.3,6.22-12.8,0-21.09-8.22-21.09-19.59s8.29-19.52,19.66-19.52c10.65,0,19.24,7.15,19.31,19.09l-29.25,5.72c1.86,4.36,6.01,6.72,11.58,6.72,4.29,0,7.58-1.36,10.37-4.15ZM223.79,75.74v.07l21.6-4.15c-1.22-4.65-5.22-7.79-10.58-7.79-6.51,0-11.01,4.58-11.01,11.87Z"/>
    <path class="st1" d="M300.02,57.15v38.18h-8.51v-4.93c-3,3.65-7.44,5.43-12.66,5.43-11.15,0-19.31-7.72-19.31-19.59s8.15-19.52,19.31-19.52c4.86,0,9.15,1.65,12.23,5.08v-4.65h8.94ZM291.22,76.24c0-7.29-4.86-11.94-11.37-11.94s-11.3,4.65-11.3,11.94,4.86,11.94,11.3,11.94,11.37-4.65,11.37-11.94Z"/>
    <path class="st1" d="M333.2,93.26c-2.15,1.72-5.36,2.57-8.58,2.57-8.37,0-13.16-4.43-13.16-12.87v-34.25h8.94v8.72h10.23v7.15h-10.23v18.16c0,3.72,1.93,5.72,5.29,5.72,1.86,0,3.65-.5,5.01-1.57l2.5,6.36Z"/>
    <path class="st1" d="M362.66,56.72v8.51c-.79-.14-1.43-.21-2.07-.21-6.79,0-11.08,4-11.08,11.8v18.52h-8.94v-38.18h8.51v5.58c2.57-4,7.22-6.01,13.59-6.01Z"/>
    <path class="st1" d="M407.22,57.15v38.18h-8.51v-4.93c-3,3.65-7.44,5.43-12.66,5.43-11.15,0-19.31-7.72-19.31-19.59s8.15-19.52,19.31-19.52c4.86,0,9.15,1.65,12.23,5.08v-4.65h8.94ZM398.42,76.24c0-7.29-4.86-11.94-11.37-11.94s-11.3,4.65-11.3,11.94,4.86,11.94,11.3,11.94,11.37-4.65,11.37-11.94Z"/>
    <path class="st1" d="M443.26,95.33l-9.8-13.23-9.87,13.23h-9.87l14.87-19.38-14.23-18.81h9.94l9.37,12.51,9.37-12.51h9.65l-14.3,18.66,14.94,19.52h-10.08Z"/>
  </g>
  <g>
    <path class="st5" d="M92.5,47.27l-14.99,8.95c-2.14,1.27-4.85-.28-4.85-2.77v-13.06c0-1.14.6-2.19,1.58-2.77l14.99-8.95c2.14-1.27,4.85.28,4.85,2.77v13.06c0,1.14-.6,2.19-1.58,2.77Z"/>
    <path class="st2" d="M117.49,29.78l-13.31,7.95c-1.9,1.13-4.31-.25-4.31-2.46v-11.6c0-1.01.53-1.95,1.4-2.46l13.31-7.95c1.9-1.13,4.31.25,4.31,2.46v11.6c0,1.01-.53,1.95-1.4,2.46Z"/>
    <path class="st0" d="M99.62,94.35l-49.78-29.41h0l-.68-.46c-.14-.1-.27-.23-.37-.39-.43-.66-.33-1.53.13-2.16l.09-.13s-2.32,1.58-2.34,4.22v33.69c0,2.23,1.18,4.29,3.1,5.43l43.45,25.67c4.2,2.48,9.51-.55,9.51-5.43v-25.59c0-2.23-1.18-4.29-3.1-5.43Z"/>
    <path class="st4" d="M101.72,46.52l6.59-3.93v-3.27c0-.28-.02-.55-.06-.82l-3.91,2.33c-1.98,1.17-4.49-.26-4.49-2.56v-4.87c-.36.13-.71.29-1.06.49l-2.1,1.24v12.34c0,1.28-.67,2.46-1.77,3.11l-16.82,10.04c-2.41,1.42-5.44-.31-5.44-3.11v-8.18l-19.08,11.14-.09.13c-.46.64-.56,1.51-.13,2.16.1.16.23.3.37.39l.68.46,31.08,18.36,19.72-11.65c1.29-.76,2.24-1.95,2.72-3.33l-2.36,1.41c-2.52,1.49-5.71-.33-5.71-3.26v-15.38c0-1.34.71-2.58,1.86-3.26Z"/>
    <path class="st3" d="M122.31,54.95l-16.96,10.13c-2.43,1.43-5.49-.32-5.49-3.13v-14.77c0-1.29.68-2.48,1.79-3.13l16.96-10.13c2.43-1.43,5.49.32,5.49,3.13v14.77c0,1.29-.68,2.48-1.79,3.13Z"/>
  </g>
</svg>