<svg width="16" height="19" viewBox="0 0 16 19" fill="none" xmlns="http://www.w3.org/2000/svg">
<path d="M1.33333 7.98755C1.33333 4.24005 4.31833 1.20172 8 1.20172C11.6817 1.20172 14.6667 4.24005 14.6667 7.98755C14.6667 11.7059 12.5392 16.0459 9.21917 17.5967C8.83757 17.7754 8.42136 17.868 8 17.868C7.57864 17.868 7.16243 17.7754 6.78083 17.5967C3.46083 16.0451 1.33333 11.7067 1.33333 7.98839V7.98755Z" stroke="white" stroke-width="1.5"/>
<path d="M8 10.3684C9.38071 10.3684 10.5 9.24909 10.5 7.86838C10.5 6.48767 9.38071 5.36838 8 5.36838C6.61929 5.36838 5.5 6.48767 5.5 7.86838C5.5 9.24909 6.61929 10.3684 8 10.3684Z" stroke="white" stroke-width="1.5"/>
</svg>
