<svg width="20" height="19" viewBox="0 0 20 19" fill="none" xmlns="http://www.w3.org/2000/svg">
<path d="M7.6275 4.04174C8.68333 2.1484 9.21083 1.20174 10 1.20174C10.7892 1.20174 11.3167 2.1484 12.3725 4.04174L12.6458 4.53174C12.9458 5.07007 13.0958 5.33924 13.3292 5.51674C13.5625 5.69424 13.8542 5.76007 14.4375 5.89174L14.9675 6.01174C17.0175 6.4759 18.0417 6.70757 18.2858 7.49174C18.5292 8.27507 17.8308 9.09257 16.4333 10.7267L16.0717 11.1492C15.675 11.6134 15.4758 11.8459 15.3867 12.1326C15.2975 12.4201 15.3275 12.7301 15.3875 13.3492L15.4425 13.9134C15.6533 16.0942 15.7592 17.1842 15.1208 17.6684C14.4825 18.1526 13.5225 17.7109 11.6042 16.8276L11.1067 16.5992C10.5617 16.3476 10.2892 16.2226 10 16.2226C9.71083 16.2226 9.43833 16.3476 8.89333 16.5992L8.39667 16.8276C6.4775 17.7109 5.5175 18.1526 4.88 17.6692C4.24083 17.1842 4.34667 16.0942 4.5575 13.9134L4.6125 13.3501C4.6725 12.7301 4.7025 12.4201 4.6125 12.1334C4.52417 11.8459 4.325 11.6134 3.92833 11.1501L3.56667 10.7267C2.16917 9.0934 1.47083 8.2759 1.71417 7.49174C1.9575 6.70757 2.98333 6.47507 5.03333 6.01174L5.56333 5.89174C6.14583 5.76007 6.43667 5.69424 6.67083 5.51674C6.905 5.33924 7.05417 5.07007 7.35417 4.53174L7.6275 4.04174Z" stroke="white" stroke-width="1.5"/>
</svg>
