<svg width="20" height="15" viewBox="0 0 20 15" fill="none" xmlns="http://www.w3.org/2000/svg">
<path d="M7.5 13.3684C5.15917 13.3684 3.98917 13.3684 3.14833 12.8067C2.78421 12.5635 2.47159 12.2508 2.22833 11.8867C1.66667 11.0459 1.66667 9.87672 1.66667 7.53505C1.66667 5.19339 1.66667 4.02422 2.22833 3.18339C2.47159 2.81927 2.78421 2.50665 3.14833 2.26339C3.98917 1.70172 5.15833 1.70172 7.5 1.70172H12.5C14.8408 1.70172 16.0108 1.70172 16.8517 2.26339C17.2158 2.50665 17.5284 2.81927 17.7717 3.18339C18.3333 4.02422 18.3333 5.19339 18.3333 7.53505C18.3333 9.87672 18.3333 11.0459 17.7717 11.8867C17.5284 12.2508 17.2158 12.5635 16.8517 12.8067C16.0108 13.3684 14.8417 13.3684 12.5 13.3684H7.5Z" stroke="white" stroke-width="1.5"/>
<path d="M7.5 5.03506C6.83696 5.03506 6.20107 5.29846 5.73223 5.7673C5.26339 6.23614 5 6.87202 5 7.53506C5 8.19811 5.26339 8.83399 5.73223 9.30283C6.20107 9.77167 6.83696 10.0351 7.5 10.0351M12.5 5.03506C13.163 5.03506 13.7989 5.29846 14.2678 5.7673C14.7366 6.23614 15 6.87202 15 7.53506C15 8.19811 14.7366 8.83399 14.2678 9.30283C13.7989 9.77167 13.163 10.0351 12.5 10.0351" stroke="white" stroke-width="1.5"/>
<path d="M7.5 1.70172V12.9517M12.5 1.70172V12.9517" stroke="white" stroke-width="1.5" stroke-linecap="round"/>
</svg>
