<svg width="20" height="19" viewBox="0 0 20 19" fill="none" xmlns="http://www.w3.org/2000/svg">
<path d="M10 17.8684C14.6024 17.8684 18.3333 14.1374 18.3333 9.53505C18.3333 4.93268 14.6024 1.20172 10 1.20172C5.39763 1.20172 1.66667 4.93268 1.66667 9.53505C1.66667 14.1374 5.39763 17.8684 10 17.8684Z" stroke="white" stroke-width="1.5"/>
<path d="M8.4375 6.93088C8.43754 6.65725 8.50943 6.38842 8.64599 6.1513C8.78255 5.91418 8.97899 5.71708 9.21565 5.57972C9.45231 5.44236 9.72089 5.36956 9.99452 5.3686C10.2682 5.36764 10.5372 5.43856 10.7749 5.57425C11.0125 5.70995 11.2103 5.90567 11.3485 6.14183C11.4867 6.37799 11.5605 6.6463 11.5625 6.91993C11.5644 7.19355 11.4945 7.46289 11.3596 7.701C11.2248 7.93911 11.0298 8.13764 10.7942 8.27672C10.3983 8.51088 10 8.86672 10 9.32672V10.3684" stroke="white" stroke-width="1.5" stroke-linecap="round"/>
<path d="M10 13.7017C10.4602 13.7017 10.8333 13.3286 10.8333 12.8684C10.8333 12.4081 10.4602 12.035 10 12.035C9.53976 12.035 9.16667 12.4081 9.16667 12.8684C9.16667 13.3286 9.53976 13.7017 10 13.7017Z" fill="white"/>
</svg>
