<svg width="18" height="19" viewBox="0 0 18 19" fill="none" xmlns="http://www.w3.org/2000/svg">
<path d="M1.5 7.8684C1.5 4.7259 1.5 3.15424 2.47667 2.1784C3.45333 1.20257 5.02417 1.20174 8.16667 1.20174H9.83333C12.9758 1.20174 14.5475 1.20174 15.5233 2.1784C16.4992 3.15507 16.5 4.7259 16.5 7.8684V11.2017C16.5 14.3442 16.5 15.9159 15.5233 16.8917C14.5467 17.8676 12.9758 17.8684 9.83333 17.8684H8.16667C5.02417 17.8684 3.4525 17.8684 2.47667 16.8917C1.50083 15.9151 1.5 14.3442 1.5 11.2017V7.8684Z" stroke="white" stroke-width="1.5"/>
<path d="M5.66667 7.86841H12.3333M5.66667 11.2017H9.83333" stroke="white" stroke-width="1.5" stroke-linecap="round"/>
</svg>
