<svg width="20" height="21" viewBox="0 0 20 21" fill="none" xmlns="http://www.w3.org/2000/svg">
<path d="M1.66667 10.5351C1.66667 6.60672 1.66667 4.64255 2.88667 3.42172C4.10833 2.20172 6.07167 2.20172 10 2.20172C13.9283 2.20172 15.8925 2.20172 17.1125 3.42172C18.3333 4.64339 18.3333 6.60672 18.3333 10.5351C18.3333 14.4634 18.3333 16.4276 17.1125 17.6476C15.8933 18.8684 13.9283 18.8684 10 18.8684C6.07167 18.8684 4.1075 18.8684 2.88667 17.6476C1.66667 16.4284 1.66667 14.4634 1.66667 10.5351Z" stroke="white" stroke-width="1.5"/>
<path d="M5.83334 15.5351V8.03506M10 15.5351V5.53506M14.1667 15.5351V11.3684" stroke="white" stroke-width="1.5" stroke-linecap="round"/>
</svg>
